<svg width="512" height="512" xmlns="http://www.w3.org/2000/svg" fill="none">
 <defs>
  <linearGradient y2="1" x2="0.50148" y1="0" x1="0.5" id="paint0_linear_6452_19271">
   <stop stop-color="#169E00"/>
   <stop stop-color="#00C537" offset="0.49"/>
   <stop stop-color="#00B1C9" offset="1"/>
  </linearGradient>
 </defs>
 <g>
  <title>Layer 1</title>
  <rect id="svg_1" fill="#092306" rx="256" height="512" width="512"/>
  <path id="svg_2" fill="url(#paint0_linear_6452_19271)" d="m50,256.51c339,156.945 92.183,-206.51 205.883,-206.51c113.72,0 -134.096,362.455 205.893,206.5c0,40.396 -11.568,78.079 -31.555,109.9c-5.51,8.768 -11.649,17.088 -18.376,24.912l-155.688,-156.148l-133.879,134.263l-22.104,22.169c-6.7465,-7.803 -12.9055,-16.114 -18.4163,-24.871c-20.1183,-31.882 -31.7577,-69.687 -31.7577,-110.215zm356.618,80.466l1.885,-3.779l0.01,0.01c11.811,-23.632 18.051,-50.159 18.051,-76.697c-170,-68.385 -76.563,-171.1739 -170.671,-171.1739c-94.108,0 -0.6607,102.7889 -170.6607,171.1739c0,26.68 6.3009,53.319 18.2237,77.043l1.895,3.759l150.806,-151.251l150.461,150.915zm-148.727,-284.976c51.258,0 96.15,392.214 132.193,361.125l0,-0.01l-133.919,-134.314l-134.173,134.558c35.992,30.957 84.641,-361.359 135.899,-361.359z" clip-rule="evenodd" fill-rule="evenodd"/>
 </g>
</svg>