<svg width="32" height="32" xmlns="http://www.w3.org/2000/svg">

 <g>
  <title>Layer 1</title>
  <text transform="matrix(10.0066 0 0 8.08061 -90.9875 -71.0109)" stroke="#000" xml:space="preserve" text-anchor="start" font-family="'Caveat'" font-size="1" stroke-width="0" id="svg_2" y="9.82162" x="9.12209" fill="#ff007f">LaoGouih</text>
  <path id="svg_3" d="m3.43671,18.98878l9.4976,0l2.93483,-7.29523l2.93483,7.29523l9.4976,0l-7.68371,4.50865l2.93498,7.29523l-7.68371,-4.50877l-7.68371,4.50877l2.93498,-7.29523l-7.68371,-4.50865z" stroke-width="0" stroke="#000" fill="#7f003f"/>
  <path id="svg_4" d="m20.62626,14.45961l2.13352,0l0.65927,-1.85822l0.65927,1.85822l2.13352,0l-1.72605,1.14843l0.65931,1.85822l-1.72605,-1.14846l-1.72605,1.14846l0.65931,-1.85822l-1.72605,-1.14843z" stroke-width="0" stroke="#000" fill="#ff56aa"/>
  <path id="svg_5" d="m8.55283,13.32447l1.65176,0l0.51041,-0.8947l0.51041,0.8947l1.65176,0l-1.3363,0.55295l0.51043,0.8947l-1.3363,-0.55296l-1.3363,0.55296l0.51043,-0.8947l-1.3363,-0.55295z" stroke-width="0" stroke="#000" fill="#bf005f"/>
  <path stroke="#000" id="svg_6" d="m17.53536,11.47747l0.56913,0l0.17587,-0.54067l0.17587,0.54067l0.56913,0l-0.46044,0.33415l0.17588,0.54067l-0.46044,-0.33416l-0.46044,0.33416l0.17588,-0.54067l-0.46044,-0.33415z" stroke-width="0" fill="#ff007f"/>
  <path stroke="#000" opacity="0.33" id="svg_10" d="m0.05247,2.83078l0,0c0,-0.86782 1.62683,-1.57132 3.63363,-1.57132l1.65165,0l0,0l7.92793,0l14.86486,0c0.9637,0 1.88793,0.16555 2.56937,0.46023c0.68144,0.29468 1.06427,0.69435 1.06427,1.11109l0,3.9283l0,0l0,2.35698l0,0c0,0.86782 -1.62683,1.57132 -3.63363,1.57132l-14.86486,0l-10.35686,3.9955l2.42893,-3.9955l-1.65165,0c-2.0068,0 -3.63363,-0.7035 -3.63363,-1.57132l0,0l0,-2.35698l0,0l0,-3.9283z" stroke-width="0" fill="#ff56aa"/>
 </g>
</svg>