<?xml version="1.0" standalone="no"?>
<!DOCTYPE svg PUBLIC "-//W3C//DTD SVG 20010904//EN"
 "http://www.w3.org/TR/2001/REC-SVG-20010904/DTD/svg10.dtd">
<svg version="1.0" xmlns="http://www.w3.org/2000/svg"
 width="256.000000pt" height="256.000000pt" viewBox="0 0 256.000000 256.000000"
 preserveAspectRatio="xMidYMid meet">

<g transform="translate(0.000000,256.000000) scale(0.100000,-0.100000)"
fill="#000000" stroke="none">
<path d="M1220 2292 c-48 -58 -49 -60 -43 -66 4 -3 1 -6 -5 -6 -7 0 -11 -3
-10 -7 1 -5 -10 -32 -25 -60 -15 -29 -24 -53 -21 -53 4 0 1 -7 -6 -15 -7 -8
-9 -15 -4 -15 5 0 0 -7 -10 -15 -11 -8 -17 -15 -13 -15 4 0 0 -11 -9 -25 -9
-14 -12 -25 -8 -25 5 0 3 -4 -4 -9 -7 -4 -15 -17 -17 -27 -2 -10 -4 -20 -5
-21 -2 -2 -3 -6 -4 -10 -1 -5 -16 -33 -34 -64 -17 -31 -32 -62 -32 -68 0 -6
-4 -11 -9 -11 -5 0 -15 -10 -24 -23 -14 -21 -13 -23 7 -22 21 0 70 24 51 25
-6 0 -16 -5 -23 -12 -6 -6 -14 -9 -18 -6 -3 4 8 14 25 23 26 13 36 25 30 38
-1 1 13 26 30 55 17 29 31 56 31 60 0 13 73 157 89 176 9 10 15 21 14 25 -2 8
89 171 96 171 16 -1 111 -170 111 -196 0 -7 5 -14 11 -16 5 -2 11 -11 12 -20
2 -9 8 -22 15 -30 6 -8 10 -17 7 -20 -3 -3 1 -11 10 -18 8 -7 15 -20 15 -29 0
-9 5 -22 11 -28 6 -6 12 -17 13 -24 5 -23 27 -73 35 -79 4 -3 15 -21 24 -41
21 -46 96 -131 109 -123 5 3 15 1 22 -6 15 -11 37 -18 96 -27 19 -3 37 -7 39
-9 2 -2 10 1 18 7 7 7 13 7 13 2 0 -5 14 -9 30 -8 17 1 30 -3 30 -8 0 -5 7 -4
15 3 11 9 15 9 15 1 0 -9 5 -9 21 0 15 8 19 8 15 0 -7 -10 10 -13 84 -15 14
-1 31 -5 38 -9 7 -5 25 -6 38 -3 17 5 23 3 19 -3 -4 -7 0 -8 10 -5 9 4 15 14
13 23 -3 16 -27 21 -125 24 -29 1 -53 4 -53 7 0 3 -20 5 -45 5 -25 -1 -45 3
-45 7 0 5 -10 4 -21 -3 -15 -8 -19 -8 -15 0 7 10 -33 15 -117 13 -17 0 -25 3
-21 10 5 7 -2 9 -20 4 -17 -4 -25 -3 -22 3 3 5 -7 14 -23 19 -27 10 -91 88
-91 112 0 6 -7 13 -15 16 -8 4 -12 10 -9 15 3 5 -4 26 -16 47 -12 20 -24 48
-27 62 -2 13 -10 28 -16 32 -7 4 -8 8 -3 8 5 0 2 8 -7 18 -10 10 -14 22 -10
25 3 4 1 7 -6 7 -7 0 -9 5 -5 12 4 6 -1 17 -11 25 -11 7 -15 13 -11 13 5 0 3
7 -4 15 -7 8 -9 15 -5 15 4 0 -5 17 -21 37 -15 20 -21 33 -13 28 8 -4 4 3 -8
17 -13 13 -23 30 -23 36 0 7 -4 12 -10 12 -5 0 -10 7 -10 15 0 9 -7 18 -15 21
-8 4 -13 9 -11 13 3 4 -8 12 -24 18 -27 10 -32 8 -60 -25z"/>
<path d="M1236 1960 c-14 -27 -24 -50 -21 -50 3 0 -2 -11 -11 -25 -9 -14 -14
-28 -11 -31 3 -3 -3 -14 -14 -25 -11 -11 -17 -24 -14 -29 3 -5 1 -12 -5 -15
-8 -5 -8 -11 0 -20 13 -16 -3 -30 -22 -19 -6 4 -8 3 -4 -4 3 -6 2 -13 -4 -17
-15 -9 -12 -27 3 -20 6 4 2 -2 -11 -12 -27 -22 -39 -65 -15 -56 12 5 12 7 1
14 -10 7 -10 9 2 10 8 1 21 1 29 0 8 -2 10 2 5 10 -4 8 -3 10 4 5 17 -10 17
-11 -36 -45 -27 -17 -55 -42 -62 -56 -8 -14 -34 -35 -58 -45 -52 -23 -56 -24
-45 -7 4 6 -5 4 -20 -5 -30 -21 -41 -23 -31 -7 4 8 1 8 -13 1 -11 -6 -34 -9
-51 -7 -17 2 -34 0 -37 -6 -4 -5 -11 -9 -16 -9 -6 0 -7 4 -4 10 4 6 -1 7 -11
3 -15 -5 -15 -7 0 -15 9 -5 22 -6 29 -2 9 5 9 4 0 -6 -10 -11 -16 -10 -36 2
-17 12 -28 13 -41 6 -14 -8 -17 -8 -11 2 4 7 -14 0 -41 -15 -40 -22 -44 -23
-24 -5 24 21 24 21 2 10 -13 -6 -26 -9 -29 -6 -3 3 -15 1 -26 -5 -15 -8 -18
-8 -12 1 6 9 2 9 -14 1 -12 -7 -27 -9 -34 -5 -6 4 -3 -2 7 -14 13 -15 26 -20
40 -17 19 5 19 5 3 -5 -15 -9 -16 -14 -6 -26 20 -24 46 -35 46 -19 0 8 -7 11
-16 7 -9 -3 -13 -2 -9 2 9 11 59 15 52 5 -3 -5 9 -7 25 -5 19 2 28 -1 24 -7
-4 -7 1 -8 13 -4 15 6 14 3 -5 -13 -13 -11 -28 -20 -34 -20 -6 0 -2 7 9 16 10
8 13 13 7 9 -7 -3 -21 -1 -31 4 -14 7 -19 6 -19 -4 0 -7 6 -11 13 -8 13 5 14
-21 1 -34 -4 -3 7 -13 24 -20 17 -7 28 -17 25 -22 -3 -5 1 -14 9 -21 12 -10
27 -5 82 26 38 20 79 44 93 53 15 10 21 11 17 4 -11 -18 0 -16 42 8 20 11 27
14 17 5 -24 -19 -31 -50 -10 -42 33 12 9 -5 -76 -55 -49 -30 -90 -57 -90 -60
0 -4 7 -10 16 -13 8 -3 13 -2 10 3 -7 11 18 21 30 13 5 -4 10 -16 10 -27 -1
-14 5 -19 18 -17 11 2 15 -1 11 -7 -4 -7 0 -8 10 -5 13 6 11 10 -12 25 -15 11
-23 19 -17 19 5 0 15 -5 22 -12 9 -9 12 -9 12 0 0 7 -6 12 -12 12 -8 0 -5 7 6
15 11 8 15 15 10 15 -6 0 -15 -5 -22 -12 -9 -9 -14 -9 -22 0 -6 6 -7 10 -4 7
4 -2 35 11 69 30 47 27 62 31 62 19 0 -8 -20 -27 -44 -41 -69 -40 -39 -47 33
-7 35 20 64 33 64 31 0 -3 -18 -16 -40 -28 -21 -12 -37 -26 -34 -30 3 -5 -2
-6 -11 -3 -10 4 -15 2 -13 -7 2 -9 -4 -13 -16 -11 -10 2 -15 -1 -12 -7 8 -12
-30 -35 -43 -26 -14 8 -7 -23 8 -38 10 -9 12 -9 9 2 -2 7 3 16 11 19 9 3 11 0
6 -8 -5 -9 -4 -11 4 -6 6 4 9 12 6 17 -6 9 8 13 34 10 7 -2 10 2 6 8 -4 7 0 8
10 5 10 -4 15 -2 13 7 -2 8 3 13 11 11 7 -1 34 9 60 23 25 15 37 19 26 10 -11
-9 -19 -20 -18 -25 2 -5 -33 -30 -77 -57 -43 -26 -81 -55 -84 -65 -4 -16 6
-13 57 15 34 19 68 32 76 29 8 -2 11 0 8 5 -3 5 3 9 14 9 10 0 19 -1 19 -3 0
-1 -18 -12 -40 -24 -21 -12 -37 -26 -34 -31 3 -5 2 -8 -3 -7 -20 3 -34 -2 -28
-11 3 -6 -1 -7 -9 -4 -9 3 -13 11 -10 16 4 6 -3 5 -15 -1 -24 -13 -29 -23 -7
-15 8 3 17 -1 22 -8 4 -7 4 -10 -1 -6 -4 4 -14 0 -22 -10 -8 -9 -12 -11 -8 -5
4 9 1 11 -9 7 -9 -3 -14 -10 -11 -14 3 -5 1 -11 -5 -15 -5 -3 -8 -16 -6 -28 2
-12 -3 -29 -11 -38 -12 -14 -12 -17 2 -23 9 -3 14 -2 10 3 -4 8 36 33 168 108
4 2 7 2 7 0 0 -3 -36 -26 -79 -51 -44 -26 -82 -53 -85 -61 -3 -9 -12 -12 -23
-8 -10 3 -15 3 -11 -1 4 -5 3 -19 -2 -32 -11 -29 -30 -38 187 88 191 109 207
117 126 60 -17 -12 -17 -13 2 -7 l20 5 -20 -16 c-11 -8 -19 -19 -18 -24 2 -5
-7 -14 -18 -21 -15 -8 -19 -8 -15 0 9 14 0 14 -25 0 -11 -5 -17 -14 -14 -19 3
-5 -26 -28 -65 -51 -38 -23 -70 -45 -70 -50 0 -15 13 -10 73 26 72 43 117 67
117 61 0 -2 -62 -41 -137 -85 -76 -45 -144 -85 -151 -89 -10 -7 -19 -32 -24
-71 -2 -20 7 -18 57 10 30 17 55 29 55 26 0 -3 -25 -20 -55 -37 -30 -17 -60
-41 -66 -52 -15 -29 -6 -24 154 68 73 42 135 79 140 81 4 2 7 2 7 0 0 -3 -31
-24 -70 -47 -38 -23 -70 -44 -70 -47 0 -2 3 -2 8 0 4 3 79 46 167 97 88 50
175 101 193 112 53 32 36 13 -19 -23 -29 -18 -47 -35 -40 -37 6 -2 17 0 24 5
7 5 35 22 62 37 35 19 43 21 25 7 -27 -22 -21 -28 11 -11 38 21 18 1 -26 -24
-25 -15 -45 -30 -45 -34 1 -4 16 -14 35 -23 24 -11 38 -13 52 -6 15 9 16 8 5
-5 -10 -13 -9 -16 8 -21 11 -3 18 -1 15 3 -3 5 4 14 16 20 15 8 19 9 15 1 -4
-6 -3 -11 3 -11 5 0 13 4 16 10 3 5 11 10 18 10 6 0 1 -7 -11 -16 -12 -8 -26
-13 -31 -10 -7 5 -8 -9 -2 -32 1 -1 19 7 41 18 48 24 53 20 9 -8 l-31 -19 29
-15 c26 -13 34 -13 59 -1 l29 14 -22 -19 c-30 -26 -18 -35 21 -15 31 16 31 16
13 -5 -18 -20 -18 -21 0 -30 10 -5 28 -8 41 -6 13 2 21 0 17 -5 -3 -6 4 -15
15 -21 11 -6 20 -8 20 -4 0 3 7 1 15 -6 18 -15 19 -10 4 27 -7 15 -11 43 -10
61 3 35 0 37 -32 21 -22 -10 -22 -10 1 10 23 20 25 69 3 63 -8 -1 -8 4 1 18
17 27 4 34 -29 15 l-28 -17 28 24 c34 30 25 42 -17 22 -19 -9 -25 -10 -15 -2
9 7 17 18 18 23 0 6 9 10 18 10 9 0 17 8 19 18 1 9 -2 17 -7 17 -4 0 -6 7 -3
15 8 20 2 19 -43 -6 l-38 -21 25 21 c14 11 29 21 33 21 5 0 5 5 1 12 -4 7 -3
8 4 4 8 -5 12 2 12 19 l0 26 -57 -32 c-31 -18 -53 -26 -48 -19 6 10 4 12 -8 7
-30 -11 -18 0 31 32 50 32 68 38 57 21 -4 -6 1 -7 11 -3 10 4 13 8 7 10 -7 3
-9 11 -6 20 5 12 -1 11 -33 -5 -21 -10 -45 -17 -53 -14 -9 3 -11 0 -6 -8 5 -9
4 -11 -4 -6 -6 4 -27 -2 -46 -13 -19 -12 -51 -30 -70 -42 -19 -11 -35 -18 -35
-15 0 3 54 37 120 77 66 39 120 78 120 85 0 19 -5 18 -56 -12 -24 -14 -44 -24
-44 -21 0 3 36 26 81 53 44 26 83 53 86 60 3 7 13 16 24 19 11 4 17 10 14 15
-3 5 4 11 15 15 11 3 21 11 21 16 1 5 2 14 3 21 0 6 7 13 15 16 9 3 11 0 6 -8
-5 -9 -4 -11 4 -6 6 4 9 11 7 15 -3 4 10 15 29 25 19 10 36 25 39 33 3 8 2 12
-2 10 -30 -17 -163 -93 -189 -109 -18 -11 -33 -17 -33 -14 0 3 54 37 120 77
66 39 120 76 120 81 0 5 3 7 8 4 14 -8 47 19 48 41 1 18 -2 21 -17 13 -23 -13
-32 -13 -23 1 4 8 0 8 -15 0 -25 -14 -28 -23 -4 -14 11 4 14 3 9 -5 -5 -8 -2
-10 9 -6 11 5 14 2 9 -10 -4 -9 -9 -14 -12 -11 -5 5 -43 -15 -131 -68 -19 -12
-31 -15 -27 -9 9 15 1 15 -25 1 -11 -5 -17 -14 -14 -19 3 -5 0 -12 -6 -16 -8
-4 -9 -3 -5 4 9 15 1 15 -26 1 -15 -8 -19 -8 -14 0 9 14 0 14 -25 1 -10 -6
-19 -9 -19 -7 0 3 70 46 155 97 85 51 155 96 155 100 0 4 -11 10 -25 13 -18 3
-29 -1 -36 -14 -6 -12 -15 -16 -26 -12 -12 5 -14 3 -8 -7 5 -9 4 -11 -4 -6 -6
4 -17 4 -24 -2 -21 -16 -127 -74 -127 -69 0 3 41 29 90 58 106 63 104 79 -2
21 -40 -22 -79 -37 -87 -34 -8 3 -11 0 -7 -6 8 -13 -24 -31 -43 -24 -8 3 -11
0 -7 -6 3 -6 1 -14 -5 -18 -8 -5 -9 -3 -4 6 6 10 4 12 -8 7 -36 -13 -14 3 77
57 93 55 129 71 90 40 -18 -14 -18 -15 4 -4 27 13 22 26 -13 32 -13 3 -22 2
-20 -2 3 -4 -6 -7 -20 -7 -15 0 -22 4 -18 11 3 6 2 7 -2 3 -5 -4 -10 -14 -11
-22 -2 -12 2 -13 19 -4 21 9 21 9 4 -5 -11 -8 -26 -12 -35 -9 -11 5 -13 3 -7
-7 5 -9 4 -11 -4 -6 -6 4 -37 -8 -69 -27 -31 -19 -68 -40 -82 -46 -23 -11 -23
-11 -7 3 10 8 18 18 18 23 1 4 3 10 6 13 4 3 3 -1 -2 -9 -5 -9 -3 -12 6 -9 8
3 13 10 12 16 -2 7 4 9 14 5 10 -4 14 -2 10 4 -8 13 78 67 92 58 5 -3 8 3 7
12 -5 34 -24 27 -185 -70 -19 -12 -31 -15 -27 -9 9 15 1 15 -25 2 -10 -6 -19
-8 -19 -6 0 3 14 13 30 21 17 9 28 20 25 25 -4 6 1 7 11 3 11 -4 15 -3 10 5
-3 6 -1 14 5 18 8 5 9 3 4 -6 -5 -8 -3 -11 6 -8 8 3 13 10 12 16 -4 15 34 35
49 26 6 -4 8 -3 5 3 -4 6 -18 13 -32 15 -13 3 -22 2 -20 -2 3 -4 -6 -7 -20 -7
-13 0 -23 5 -22 11 1 6 -6 10 -17 8 -10 -2 -15 1 -12 6 3 5 0 9 -7 8 -6 0 -12
4 -12 9 0 6 6 9 12 9 7 -1 10 2 7 7 -3 5 0 9 6 9 6 0 8 5 5 10 -4 7 -20 3 -43
-11 -133 -78 -141 -82 -137 -59 3 16 0 20 -11 16 -10 -4 -13 -2 -8 6 5 8 1 9
-12 4 -31 -12 -5 8 79 57 80 49 92 54 82 37 -4 -6 1 -7 11 -3 10 4 13 8 7 10
-7 3 -9 11 -6 20 5 12 3 14 -7 8 -9 -6 -11 -4 -5 5 4 7 2 16 -5 20 -8 5 -15
19 -17 31 -6 40 -19 42 -77 9 -31 -18 -56 -29 -56 -26 0 3 14 13 31 21 17 9
28 19 25 22 -8 8 14 33 28 33 6 0 2 -7 -8 -15 -11 -8 -16 -15 -10 -15 14 1 50
30 36 30 -6 0 -9 6 -7 13 3 6 1 18 -4 26 -7 10 -13 11 -31 1 -18 -10 -21 -9
-15 1 6 9 4 11 -7 6 -21 -8 -17 22 5 38 22 16 22 29 0 20 -14 -5 -15 -3 -6 6
19 19 5 40 -20 28 -20 -9 -20 -9 -4 4 22 18 22 30 -2 51 -18 16 -20 15 -45
-34z m108 -145 c-10 -8 -23 -15 -28 -15 -6 0 -1 7 10 15 10 8 23 15 28 15 6 0
1 -7 -10 -15z m-148 -11 c-1 -9 -11 -21 -22 -26 -18 -9 -18 -9 0 6 15 12 16
16 5 16 -12 0 -12 2 1 10 19 12 19 13 16 -6z m195 -73 c-20 -13 -23 -41 -4
-34 12 5 12 7 1 14 -9 6 -9 9 -1 9 6 0 14 -4 18 -10 7 -12 -45 -39 -64 -32 -8
3 -11 0 -7 -6 4 -6 -3 -16 -14 -22 -15 -8 -20 -8 -18 1 2 6 -3 14 -11 17 -8 2
-11 0 -7 -6 3 -6 1 -14 -5 -18 -8 -4 -9 -3 -5 4 10 17 0 15 -32 -5 -15 -9 -22
-12 -17 -6 15 16 158 102 170 103 6 0 4 -4 -4 -9z m119 -216 c6 3 10 4 10 1 0
-9 -57 -36 -63 -29 -3 3 -22 -4 -41 -16 -20 -11 -52 -30 -71 -42 -19 -11 -35
-18 -35 -15 0 3 30 23 66 44 38 23 61 43 55 47 -7 3 -32 -6 -58 -20 -25 -15
-43 -22 -39 -16 10 15 -1 14 -29 -5 -14 -9 -25 -14 -25 -11 0 3 31 24 69 48
39 24 67 47 64 53 -4 6 14 -2 40 -17 26 -16 52 -25 57 -22z m-250 20 c0 -2
-10 -9 -22 -15 -22 -11 -22 -10 -4 4 21 17 26 19 26 11z m-320 -30 c0 -2 -14
-12 -31 -21 -17 -8 -28 -11 -25 -5 10 16 -1 14 -31 -6 -19 -13 -25 -14 -18 -4
6 11 4 13 -9 8 -9 -4 -15 -3 -11 2 3 5 -1 11 -7 14 -7 2 -1 4 14 3 14 0 24 -4
21 -8 -2 -5 0 -8 6 -8 5 0 13 5 16 10 4 6 15 8 25 5 10 -3 21 -1 25 5 6 10 25
14 25 5z m-108 -93 c-16 -13 -20 -20 -11 -29 8 -8 8 -13 0 -18 -6 -3 -10 -1
-9 6 2 6 -2 13 -9 16 -8 3 -11 -3 -8 -16 3 -14 -1 -18 -11 -14 -9 3 -14 0 -12
-8 2 -9 -4 -13 -16 -11 -10 2 -15 -1 -12 -7 8 -12 -30 -34 -44 -26 -6 4 -8 11
-5 16 4 5 -2 6 -12 2 -33 -12 -4 9 79 58 88 51 107 59 70 31z m758 -47 c0 -2
-10 -9 -22 -15 -22 -11 -22 -10 -4 4 21 17 26 19 26 11z m90 0 c0 -2 -10 -9
-22 -15 -22 -11 -22 -10 -4 4 21 17 26 19 26 11z m-20 -100 c0 -2 -10 -9 -22
-15 -22 -11 -22 -10 -4 4 21 17 26 19 26 11z m130 -19 c0 -2 -7 -7 -16 -10 -8
-3 -12 -2 -9 4 6 10 25 14 25 6z m-150 -51 c0 -2 -10 -9 -22 -15 -22 -11 -22
-10 -4 4 21 17 26 19 26 11z m-530 -50 c0 -2 -10 -9 -22 -15 -22 -11 -22 -10
-4 4 21 17 26 19 26 11z m-33 -79 c0 -8 -6 -12 -15 -8 -10 3 -13 1 -8 -6 3 -6
1 -14 -5 -18 -8 -5 -9 -3 -4 6 5 8 3 11 -6 8 -8 -3 -13 -10 -12 -16 1 -5 -29
-29 -67 -51 -69 -41 -100 -54 -64 -26 19 15 19 15 -1 8 -35 -11 -8 9 87 63 51
29 93 54 94 54 0 0 1 -6 1 -14z m383 -250 c0 -2 -16 -14 -36 -26 -28 -18 -38
-20 -47 -10 -7 7 -7 10 -2 7 6 -3 26 3 45 14 39 20 40 21 40 15z m-510 -50 c0
-6 -108 -66 -117 -66 -7 1 107 70 115 70 1 0 2 -2 2 -4z m745 -26 c-3 -5 -11
-10 -16 -10 -6 0 -7 5 -4 10 3 6 11 10 16 10 6 0 7 -4 4 -10z"/>
<path d="M1336 1697 c-16 -12 -16 -13 2 -13 10 0 19 6 19 13 0 7 -1 13 -2 13
-1 0 -9 -6 -19 -13z"/>
<path d="M1307 1669 c7 -7 15 -10 18 -7 3 3 -2 9 -12 12 -14 6 -15 5 -6 -5z"/>
<path d="M1434 1522 c2 -9 6 -16 10 -15 27 7 29 11 9 21 -18 10 -21 9 -19 -6z"/>
<path d="M1375 1505 c-22 -13 -37 -25 -33 -25 9 0 78 41 78 46 0 6 -3 5 -45
-21z"/>
<path d="M746 1360 c-31 -20 -46 -53 -19 -43 10 4 11 8 3 13 -8 5 -7 9 5 14 9
3 22 3 27 -1 7 -3 8 -1 4 5 -3 6 2 15 11 21 10 6 14 10 8 10 -5 0 -23 -9 -39
-19z"/>
<path d="M984 1014 c-18 -14 -18 -14 6 -3 31 14 36 19 24 19 -6 0 -19 -7 -30
-16z"/>
<path d="M934 984 c-18 -14 -18 -15 4 -4 12 6 22 13 22 15 0 8 -5 6 -26 -11z"/>
<path d="M1312 1871 c-11 -6 -10 -10 4 -15 9 -4 22 -2 28 4 8 8 6 9 -8 4 -13
-5 -17 -4 -12 4 8 14 6 15 -12 3z"/>
<path d="M903 1709 c-17 -11 -41 -22 -53 -24 -13 -2 -33 -11 -46 -20 -27 -18
-38 -19 -28 -4 5 8 1 8 -14 0 -11 -6 -28 -8 -36 -5 -9 4 -18 0 -22 -10 -3 -9
-10 -13 -15 -10 -5 3 -6 10 -3 16 4 7 0 7 -12 1 -11 -5 -44 -9 -74 -8 -34 1
-64 -4 -77 -13 -13 -8 -23 -10 -23 -5 0 6 -12 8 -27 6 -16 -2 -36 -4 -45 -4
-10 0 -20 -4 -23 -10 -4 -5 -11 -9 -16 -9 -6 0 -8 4 -4 9 8 15 -44 -3 -90 -30
-31 -18 -37 -19 -26 -6 13 17 13 17 -12 6 -36 -16 -40 -63 -9 -86 9 -7 12 -13
6 -13 -5 -1 2 -10 15 -20 13 -11 20 -20 16 -20 -4 0 11 -18 34 -40 22 -22 44
-40 47 -40 4 0 29 -24 57 -52 28 -29 47 -47 43 -40 -13 22 126 -121 164 -169
58 -72 66 -90 63 -149 -2 -56 -8 -106 -17 -150 -11 -50 -16 -76 -21 -100 -3
-14 -7 -36 -10 -50 -12 -60 -18 -97 -21 -120 -1 -14 -3 -25 -4 -25 -2 0 -3
-11 -4 -25 -1 -14 -5 -30 -9 -37 -10 -16 -2 -95 11 -120 8 -15 8 -24 -1 -33
-10 -12 -9 -12 5 -1 10 7 15 18 11 24 -3 6 -1 7 6 3 9 -6 121 48 121 59 0 6
-55 -12 -89 -30 l-33 -17 5 74 c3 40 8 87 10 103 16 94 49 269 52 275 2 3 7
33 11 65 19 161 -4 236 -101 328 -55 52 -73 68 -159 142 -84 71 -194 185 -179
185 4 0 2 5 -5 12 -7 7 -12 17 -12 23 0 12 53 36 90 41 73 8 91 12 105 24 9 7
15 8 15 2 0 -11 71 -9 91 4 8 5 10 3 4 -6 -6 -9 -4 -11 6 -4 14 8 25 10 144
19 37 2 78 14 110 30 42 22 46 23 25 6 l-25 -22 30 13 c52 22 106 58 100 68
-9 14 -16 12 -52 -11z"/>
<path d="M1343 1603 c-61 -36 -62 -38 -40 -50 12 -7 16 -12 8 -13 -8 0 -12 -3
-8 -6 9 -10 124 64 124 80 0 8 -6 12 -15 8 -10 -3 -13 -1 -8 6 10 17 8 16 -61
-25z m65 9 c9 -6 -2 -17 -36 -35 -64 -35 -91 -21 -30 16 49 30 48 30 66 19z"/>
<path d="M1348 1584 c-38 -20 -36 -28 2 -9 17 9 30 18 30 20 0 7 -1 6 -32 -11z"/>
<path d="M2183 1613 c-7 -2 -13 -11 -13 -19 0 -8 6 -11 17 -7 11 5 14 3 9 -6
-6 -9 -1 -12 15 -10 13 1 36 -1 51 -5 l27 -8 -30 -48 c-28 -45 -130 -147 -201
-201 -87 -66 -159 -135 -151 -143 3 -3 -1 -8 -10 -12 -16 -6 -56 -63 -61 -87
-2 -6 -6 -20 -11 -30 -9 -21 4 -261 15 -274 2 -2 4 -12 5 -23 1 -11 3 -21 5
-22 3 -4 8 -29 15 -73 3 -22 8 -50 11 -62 2 -13 6 -33 8 -45 13 -64 18 -107
20 -146 l1 -43 -72 -40 c-75 -42 -99 -47 -40 -10 39 25 11 30 -31 5 -23 -14
-24 -14 -8 -1 18 15 18 16 -3 14 -20 -1 -26 -10 -21 -32 1 -5 -2 -6 -7 -2 -4
5 -9 13 -9 18 -1 5 -2 12 -3 15 0 3 -16 -3 -33 -14 -80 -48 -128 -73 -128 -69
0 3 27 22 60 42 33 20 60 38 60 39 0 1 -10 2 -22 0 -13 -1 -27 -3 -31 -3 -5
-1 -5 -7 -1 -13 4 -7 3 -10 -1 -5 -5 4 -33 -7 -63 -24 -30 -16 -51 -25 -46
-18 5 9 2 10 -10 6 -10 -4 -15 -3 -11 3 3 6 1 10 -5 10 -6 0 -8 5 -4 11 5 8 1
8 -14 0 -26 -14 -35 -14 -27 -1 3 6 -1 7 -10 4 -10 -4 -15 -2 -13 7 5 21 -108
20 -152 -1 -19 -10 -41 -15 -49 -12 -8 2 -11 0 -8 -5 3 -5 -3 -9 -14 -9 -19 0
-18 1 3 18 13 10 19 18 13 19 -54 8 -86 2 -135 -23 -51 -27 -50 -24 4 15 10 8
15 17 10 20 -5 3 -34 -10 -64 -29 -30 -18 -59 -34 -65 -34 -5 0 11 14 38 30
26 17 47 31 47 33 0 8 -109 -2 -129 -12 -14 -8 -21 -9 -17 -2 5 7 1 8 -10 4
-13 -5 -15 -3 -9 7 5 9 4 11 -4 6 -9 -6 -9 -11 -1 -21 8 -9 4 -12 -16 -9 -15
1 -37 -4 -48 -12 -20 -13 -22 -12 -22 11 0 13 4 21 9 18 17 -10 54 -10 54 2 0
19 -69 9 -111 -16 -22 -13 -36 -17 -31 -9 6 10 4 12 -11 7 -14 -5 -12 -2 6 13
14 11 21 20 15 20 -14 0 327 193 343 193 7 0 49 22 95 48 45 26 86 44 92 41
15 -9 45 -10 51 0 3 4 10 8 15 8 6 0 7 -5 3 -12 -4 -6 -3 -8 3 -5 6 4 35 -6
65 -21 30 -16 60 -26 68 -24 8 3 10 0 5 -8 -5 -9 -4 -11 3 -6 7 4 12 2 12 -5
0 -7 3 -9 7 -6 3 4 12 -2 20 -13 8 -11 23 -20 34 -20 10 0 19 -5 19 -11 0 -6
6 -9 13 -6 7 3 19 -4 25 -14 7 -10 20 -19 30 -19 9 0 25 -7 35 -15 11 -7 26
-11 35 -8 10 4 13 2 8 -5 -6 -11 6 -17 19 -9 2 1 10 -7 18 -17 8 -11 21 -17
30 -13 9 3 18 0 21 -8 3 -9 12 -12 22 -8 11 4 15 2 11 -4 -7 -11 30 -22 51
-15 10 3 10 7 2 17 -6 8 -19 11 -27 8 -11 -4 -14 -2 -9 5 4 8 0 12 -11 12 -10
0 -27 7 -37 15 -10 8 -23 12 -27 9 -5 -3 -9 0 -9 7 0 7 -3 9 -7 6 -6 -7 -73
29 -84 45 -3 5 -16 11 -29 13 -13 2 -26 8 -29 13 -3 5 -34 22 -68 38 -35 15
-63 32 -63 36 0 4 -6 8 -13 8 -8 0 -24 9 -37 20 -21 19 -46 25 -79 21 -7 -2
-10 2 -6 8 6 11 -20 15 -86 14 -15 -1 -152 -73 -325 -173 -164 -95 -308 -173
-320 -175 -11 -1 -27 -5 -35 -9 -8 -4 -3 2 11 13 22 18 22 20 5 17 -11 -2 -42
-17 -69 -32 -27 -15 -46 -22 -41 -14 6 10 4 12 -9 7 -10 -4 -15 -3 -11 4 4 5
14 8 23 5 10 -3 28 4 42 15 l25 21 -27 -16 c-32 -19 -42 -20 -32 -5 5 8 1 8
-14 0 -27 -14 -35 -14 -26 2 5 9 4 9 -6 0 -7 -6 -27 -9 -46 -6 -22 4 -42 0
-59 -11 -19 -12 -30 -14 -39 -7 -14 12 -44 8 -78 -10 -20 -11 -21 -10 -10 3
13 16 2 17 -53 4 -11 -2 -23 -5 -27 -5 -4 -1 -15 -15 -23 -32 l-16 -30 23 12
c20 11 22 11 10 -3 -15 -19 -7 -26 25 -23 12 1 20 -2 18 -6 -11 -16 28 -18 53
-2 26 17 26 17 13 0 -12 -15 -12 -17 4 -11 13 5 16 4 11 -4 -5 -8 -1 -10 10
-5 12 4 15 3 10 -6 -6 -10 -3 -9 13 0 22 14 9 32 -16 22 -21 -8 -15 5 8 18 17
9 20 8 14 -2 -6 -9 -3 -11 9 -6 10 4 15 3 11 -3 -9 -15 7 -12 29 5 11 8 25 15
30 15 6 0 -9 -14 -34 -31 -43 -30 -44 -31 -14 -26 18 4 37 1 44 -6 9 -9 11 -9
6 0 -3 6 -3 13 1 16 5 2 2 2 -4 1 -19 -5 -16 4 6 16 17 9 19 7 16 -13 -4 -20
-1 -23 29 -22 19 0 38 4 42 8 5 4 0 5 -11 2 -15 -5 -17 -4 -6 3 8 6 21 8 29 4
11 -4 13 -1 7 8 -5 9 -4 11 3 6 6 -4 24 1 39 10 26 15 27 15 8 -1 -11 -9 -19
-20 -18 -25 2 -5 -3 -7 -11 -4 -8 3 -16 2 -19 -3 -3 -4 17 -8 43 -8 26 0 46 4
43 8 -3 5 -11 6 -19 3 -22 -8 -17 2 7 15 12 6 19 7 16 2 -3 -5 3 -15 15 -22
11 -7 17 -8 14 -3 -3 6 -3 12 1 15 5 2 2 2 -5 1 -19 -5 -14 4 8 16 16 8 20 8
18 -2 -2 -7 5 -12 14 -12 10 1 15 -3 12 -8 -3 -5 -13 -7 -23 -3 -10 4 -13 3
-6 -4 6 -5 28 -12 51 -15 32 -5 51 -1 90 19 27 15 40 19 29 11 -11 -8 -29 -22
-40 -31 -20 -16 -19 -16 3 -5 12 6 22 8 22 5 0 -4 24 7 54 25 46 26 54 28 52
13 -2 -10 -12 -18 -22 -19 -18 -1 -64 -21 -64 -27 0 -2 9 -3 19 -3 11 0 17 4
14 9 -3 5 0 7 8 5 8 -3 38 8 67 24 59 33 71 31 16 -2 -19 -12 -32 -25 -29 -28
9 -9 45 -10 39 -1 -2 5 9 15 27 24 20 11 28 12 23 4 -5 -9 -2 -11 12 -6 18 7
18 7 0 -8 -11 -8 -25 -15 -30 -15 -6 0 -4 5 4 11 10 7 11 9 2 7 -25 -7 -7 -23
25 -23 17 -1 29 3 27 7 -3 4 9 14 25 22 27 14 29 14 27 -1 -2 -9 -9 -19 -17
-21 -11 -3 -11 -1 1 8 12 9 12 11 1 8 -17 -5 -24 -37 -7 -34 13 2 71 32 106
55 19 12 22 13 15 2 -6 -11 -4 -13 9 -8 10 4 15 3 11 -3 -3 -6 0 -10 7 -10 7
0 2 -10 -12 -21 -25 -21 -25 -21 11 0 40 23 54 26 44 11 -4 -6 1 -7 11 -3 12
4 15 3 10 -5 -5 -8 -1 -10 10 -5 10 4 15 2 11 -4 -3 -5 3 -9 16 -7 12 1 26 3
30 3 5 1 5 7 1 14 -4 6 -4 9 1 5 4 -4 32 6 62 23 67 38 69 31 3 -11 -27 -18
-50 -33 -50 -34 0 -1 20 -1 44 -1 29 0 41 3 36 10 -6 7 -2 11 10 11 10 0 18
-3 18 -6 -2 -18 6 -18 40 3 50 32 82 49 82 43 0 -2 -16 -14 -35 -26 -37 -23
-50 -49 -16 -30 26 13 34 13 25 -2 -4 -7 -3 -8 5 -4 6 4 9 11 6 16 -6 10 49
42 58 34 3 -3 19 2 36 11 48 24 37 10 -19 -24 -27 -17 -50 -33 -50 -35 0 -11
59 6 105 30 41 21 46 22 25 5 -14 -11 -23 -21 -20 -21 51 -10 74 -7 107 11
l38 21 -25 -21 c-23 -19 -24 -20 -4 -17 12 3 47 19 78 36 31 18 56 30 56 27 0
-3 -20 -17 -45 -31 -52 -31 -56 -38 -16 -26 16 4 32 6 34 4 3 -3 28 9 56 26
29 16 55 30 59 30 4 0 -1 -5 -11 -11 -9 -6 -14 -15 -11 -21 4 -7 2 -8 -4 -4
-7 4 -21 1 -32 -7 -20 -14 -20 -15 5 -15 14 0 28 4 31 9 3 5 10 9 15 9 6 0 8
-4 5 -9 -8 -12 64 3 104 23 l35 17 -25 -20 c-24 -19 -24 -20 -4 -16 12 2 40
15 63 29 44 28 70 36 33 10 -32 -22 -17 -37 20 -18 16 9 27 11 24 5 -8 -12 59
-10 71 2 4 5 -1 5 -12 2 -15 -5 -17 -4 -6 3 17 12 44 4 35 -10 -4 -6 12 1 35
14 22 12 41 29 41 36 0 8 -5 10 -12 6 -8 -5 -7 0 2 11 14 17 13 18 -7 13 -13
-3 -21 -2 -20 4 1 6 -4 13 -12 16 -9 3 -11 0 -6 -9 5 -8 5 -11 0 -7 -4 4 -22
0 -39 -8 l-31 -16 30 25 30 25 -39 7 c-27 5 -48 3 -71 -8 -34 -16 -52 -12 -35
7 9 12 4 13 -52 18 -13 1 -48 -13 -78 -31 -51 -29 -44 -16 10 20 25 16 25 16
-19 16 -25 0 -58 -8 -76 -18 -25 -15 -32 -16 -32 -5 0 8 6 12 13 9 6 -2 15 0
18 5 14 23 -41 4 -101 -36 -39 -24 -25 -4 14 23 36 24 37 25 12 25 -15 0 -47
-12 -73 -26 -25 -14 -46 -23 -46 -20 0 3 14 13 30 21 17 9 28 20 25 25 -3 4
11 18 30 30 37 23 47 43 18 34 -17 -5 -17 -5 -1 6 14 8 17 22 14 70 -2 32 -9
74 -15 92 -5 18 -12 45 -14 60 -1 15 -6 30 -9 34 -4 3 -4 12 -1 20 3 8 1 14
-3 14 -5 0 -9 12 -10 28 0 15 -4 43 -8 62 -5 19 -9 41 -9 48 0 6 -3 12 -6 12
-3 0 -7 23 -9 51 -1 28 -4 71 -6 97 -4 46 14 100 44 133 8 9 31 34 50 55 20
22 46 47 60 57 13 9 20 17 15 17 -6 0 1 8 15 18 66 46 262 240 255 252 -3 4 2
11 11 14 8 3 13 10 9 15 -3 6 3 14 12 20 11 6 13 11 5 11 -7 0 -11 4 -8 9 7
11 -69 45 -83 37 -6 -4 -11 -3 -11 3 0 6 -7 7 -17 4 -11 -4 -14 -3 -9 5 8 13
7 13 -11 5z m-1013 -1319 c0 -2 -18 -13 -39 -24 -33 -16 -39 -17 -37 -4 1 9 7
19 13 22 12 8 63 12 63 6z m148 -9 c-2 -6 -7 -9 -11 -7 -4 1 -18 -3 -30 -9
-19 -9 -19 -8 3 10 25 21 44 24 38 6z m83 8 c-10 -4 -8 -9 9 -18 l24 -13 -35
-16 -34 -17 24 19 24 20 -26 0 c-15 0 -25 -3 -23 -7 3 -4 -4 -7 -15 -7 -10 0
-19 1 -19 2 0 6 66 44 75 43 6 0 4 -3 -4 -6z m665 -18 c-11 -8 -24 -15 -30
-15 -5 0 -1 7 10 15 10 8 24 14 29 14 6 0 1 -6 -9 -14z m-1629 -10 c0 -6 -8
-11 -18 -11 -10 0 -15 5 -12 10 4 5 -1 7 -11 3 -9 -4 -15 -3 -12 2 8 12 53 8
53 -4z m1773 11 c0 -5 -69 -46 -78 -46 -3 0 9 11 28 25 33 23 50 30 50 21z
m-740 -11 c0 -2 -10 -10 -22 -16 -21 -11 -22 -11 -9 4 13 16 31 23 31 12z
m870 1 c0 -2 -7 -7 -16 -10 -8 -3 -12 -2 -9 4 6 10 25 14 25 6z m-1085 -96
c-8 -13 1 -13 28 1 20 9 19 8 -2 -9 l-24 -19 26 0 c15 0 24 3 22 8 -3 4 0 11
6 15 8 4 9 3 5 -4 -9 -15 -1 -15 25 -2 10 6 19 8 19 6 0 -3 -14 -13 -30 -21
-17 -9 -28 -20 -25 -26 4 -5 -9 -2 -29 7 -19 10 -33 21 -30 26 8 12 -10 10
-24 -4 -6 -6 -14 -9 -18 -6 -3 4 7 13 23 22 34 18 36 19 28 6z m795 -24 c-7
-7 -13 -7 -20 0 -6 6 -3 10 10 10 13 0 16 -4 10 -10z m-295 -16 c-3 -5 -12
-10 -18 -10 -7 0 -6 4 3 10 19 12 23 12 15 0z"/>
<path d="M1110 280 c-9 -6 -10 -10 -3 -10 6 0 15 5 18 10 8 12 4 12 -15 0z"/>
<path d="M1550 1500 c-9 -6 -10 -10 -3 -10 6 0 15 5 18 10 8 12 4 12 -15 0z"/>
<path d="M1584 1494 c-18 -14 -18 -15 4 -4 12 6 22 13 22 15 0 8 -5 6 -26 -11z"/>
<path d="M1515 1455 c-22 -13 -37 -25 -33 -25 9 0 78 41 78 46 0 6 -3 5 -45
-21z"/>
<path d="M1644 1464 c-18 -14 -18 -15 4 -4 12 6 22 13 22 15 0 8 -5 6 -26 -11z"/>
<path d="M1994 1454 c-18 -14 -18 -15 4 -4 12 6 22 13 22 15 0 8 -5 6 -26 -11z"/>
<path d="M1734 1444 c-18 -14 -18 -15 4 -4 12 6 22 13 22 15 0 8 -5 6 -26 -11z"/>
<path d="M1600 1440 c-9 -6 -10 -10 -3 -10 6 0 15 5 18 10 8 12 4 12 -15 0z"/>
<path d="M1655 1400 c-3 -6 1 -7 9 -4 18 7 21 14 7 14 -6 0 -13 -4 -16 -10z"/>
<path d="M1778 1353 c-54 -31 -96 -59 -93 -61 2 -2 20 6 39 18 20 12 40 19 45
16 5 -4 26 3 45 15 39 23 46 32 19 23 -15 -5 -15 -3 1 10 23 18 40 21 30 5 -4
-8 0 -8 15 0 25 14 28 23 4 14 -11 -4 -14 -3 -9 5 10 17 10 17 -96 -45z m26
-8 c-10 -8 -23 -14 -29 -14 -5 0 -1 6 9 14 11 8 24 15 30 15 5 0 1 -7 -10 -15z"/>
<path d="M847 1320 c-37 -23 -46 -32 -22 -25 20 7 20 6 1 -9 -23 -18 -40 -21
-30 -5 4 8 0 8 -15 0 -25 -14 -28 -23 -4 -14 11 4 14 3 9 -5 -5 -8 -1 -10 10
-5 12 5 15 3 9 -6 -6 -10 -3 -11 14 -2 11 7 20 17 18 23 -1 6 4 13 12 16 9 3
11 0 6 -8 -4 -7 11 -2 34 10 24 14 37 27 30 31 -8 4 -7 8 2 11 8 3 1 5 -16 5
-16 0 -42 -8 -58 -17z m48 4 c14 -6 14 -8 -4 -20 -11 -8 -27 -11 -35 -8 -15 6
-15 8 1 20 22 16 18 15 38 8z"/>
<path d="M870 1310 c-9 -6 -10 -10 -3 -10 6 0 15 5 18 10 8 12 4 12 -15 0z"/>
<path d="M925 1250 c-16 -11 -25 -20 -20 -20 6 0 24 9 40 20 17 11 26 20 20
20 -5 0 -23 -9 -40 -20z"/>
<path d="M755 1241 c-3 -5 -2 -12 3 -15 5 -3 9 1 9 9 0 17 -3 19 -12 6z"/>
<path d="M975 1149 c-58 -36 -87 -62 -35 -32 86 51 104 63 95 63 -5 0 -32 -14
-60 -31z"/>
<path d="M1655 1110 c-3 -6 1 -7 9 -4 18 7 21 14 7 14 -6 0 -13 -4 -16 -10z"/>
<path d="M978 1084 c-38 -20 -36 -28 2 -9 17 9 30 18 30 20 0 7 -1 6 -32 -11z"/>
<path d="M1608 1034 c-38 -20 -36 -28 2 -9 17 9 30 18 30 20 0 7 -1 6 -32 -11z"/>
<path d="M1047 936 c-95 -58 -112 -71 -82 -61 20 7 20 6 1 -9 -23 -18 -40 -21
-30 -5 4 8 0 8 -15 0 -25 -14 -28 -23 -4 -14 12 5 14 3 8 -7 -5 -7 18 2 51 20
84 48 101 60 84 60 -8 0 -1 9 15 20 17 11 39 18 50 15 11 -3 14 -2 7 1 -10 5
-9 9 5 20 42 32 -9 9 -90 -40z m-22 -36 c-16 -11 -34 -20 -40 -20 -5 0 4 9 20
20 17 11 35 20 40 20 6 0 -3 -9 -20 -20z"/>
<path d="M1598 974 c-16 -8 -28 -17 -28 -19 0 -10 16 -4 40 15 30 23 25 25
-12 4z"/>
<path d="M864 825 c-14 -11 -15 -14 -2 -9 12 4 16 1 14 -13 -5 -29 3 -34 35
-18 30 16 32 39 2 28 -11 -4 -14 -3 -9 5 5 8 1 10 -10 5 -12 -4 -15 -3 -10 5
10 16 4 15 -20 -3z m41 -25 c3 -6 -1 -7 -9 -4 -18 7 -21 14 -7 14 6 0 13 -4
16 -10z"/>
<path d="M1330 819 c-17 -13 -18 -17 -5 -10 33 17 51 31 40 31 -5 0 -21 -10
-35 -21z"/>
<path d="M845 772 c-5 -4 -11 -13 -13 -20 -2 -10 2 -10 18 -2 11 6 18 15 15
21 -7 11 -7 11 -20 1z"/>
<path d="M934 644 c-18 -14 -18 -15 4 -4 12 6 22 13 22 15 0 8 -5 6 -26 -11z"/>
<path d="M944 494 c-18 -14 -18 -15 4 -4 12 6 22 13 22 15 0 8 -5 6 -26 -11z"/>
<path d="M874 454 c-18 -14 -18 -15 4 -4 12 6 22 13 22 15 0 8 -5 6 -26 -11z"/>
<path d="M1890 310 c-9 -6 -10 -10 -3 -10 6 0 15 5 18 10 8 12 4 12 -15 0z"/>
<path d="M720 300 c-9 -6 -10 -10 -3 -10 6 0 15 5 18 10 8 12 4 12 -15 0z"/>
<path d="M1223 293 c0 -8 6 -9 19 -2 10 5 18 11 18 12 0 2 -8 3 -18 3 -10 0
-19 -6 -19 -13z"/>
<path d="M1455 300 c-3 -6 1 -7 9 -4 18 7 21 14 7 14 -6 0 -13 -4 -16 -10z"/>
<path d="M1494 299 c-3 -5 3 -6 13 -3 17 5 17 5 0 -9 -16 -13 -16 -15 -2 -21
9 -3 27 1 41 10 28 19 31 26 7 17 -9 -4 -14 -2 -11 3 4 5 -5 10 -18 10 -13 1
-27 -2 -30 -7z m41 -19 c-3 -5 -11 -10 -16 -10 -6 0 -7 5 -4 10 3 6 11 10 16
10 6 0 7 -4 4 -10z"/>
<path d="M1120 130 c-18 -15 -20 -18 -6 -13 14 5 17 3 11 -7 -5 -8 4 -6 23 6
22 12 28 20 19 26 -17 11 -19 10 -47 -12z m35 0 c-3 -5 -11 -10 -16 -10 -6 0
-7 5 -4 10 3 6 11 10 16 10 6 0 7 -4 4 -10z"/>
<path d="M1584 134 c-18 -14 -18 -15 4 -4 12 6 22 13 22 15 0 8 -5 6 -26 -11z"/>
</g>
</svg>
