<?xml version="1.0" standalone="no"?>
<!DOCTYPE svg PUBLIC "-//W3C//DTD SVG 20010904//EN"
 "http://www.w3.org/TR/2001/REC-SVG-20010904/DTD/svg10.dtd">
<svg version="1.0" xmlns="http://www.w3.org/2000/svg"
 width="32.000000pt" height="32.000000pt" viewBox="0 0 32.000000 32.000000"
 preserveAspectRatio="xMidYMid meet">

<g transform="translate(0.000000,32.000000) scale(0.100000,-0.100000)"
fill="#000000" stroke="none">
<path d="M5 309 c-4 -6 -5 -11 -4 -12 2 -2 13 -9 24 -17 11 -8 17 -11 13 -6
-4 5 -3 17 3 27 8 16 6 19 -10 19 -11 0 -23 -5 -26 -11z"/>
<path d="M80 284 c-32 -30 -40 -43 -40 -73 -1 -20 -7 -47 -15 -61 -8 -14 -14
-34 -14 -45 0 -13 6 -7 19 19 11 22 20 52 20 68 0 19 5 28 16 28 8 0 12 -5 8
-11 -3 -6 0 -15 7 -20 12 -8 12 -11 -1 -19 -12 -7 -12 -12 -2 -22 9 -9 12 -9
12 5 0 19 15 23 26 6 4 -7 12 1 20 21 17 40 17 40 0 40 -8 0 -27 5 -42 10
l-27 11 38 39 c49 50 29 53 -25 4z"/>
<path d="M206 277 c-21 -38 -57 -149 -46 -142 10 6 73 165 68 170 -2 2 -12
-11 -22 -28z"/>
<path d="M272 220 c0 -14 2 -19 5 -12 2 6 2 18 0 25 -3 6 -5 1 -5 -13z"/>
<path d="M237 160 c-3 -11 -1 -20 4 -20 5 0 9 -9 9 -20 0 -11 -5 -20 -12 -20
-6 0 -9 -2 -6 -5 10 -10 35 6 47 31 6 14 16 22 21 19 6 -3 10 -2 10 3 0 8 -50
32 -65 32 -2 0 -5 -9 -8 -20z"/>
<path d="M281 62 c-17 -34 -27 -41 -60 -47 -22 -4 -45 -4 -50 -1 -5 4 -12 2
-16 -4 -4 -6 20 -9 63 -9 l69 1 11 46 c6 26 9 49 7 50 -2 2 -13 -14 -24 -36z"/>
<path d="M312 25 c0 -17 2 -22 5 -12 2 9 2 23 0 30 -3 6 -5 -1 -5 -18z"/>
</g>
</svg>
